<svg xmlns="http://www.w3.org/2000/svg" version="1.1" xmlns:xlink="http://www.w3.org/1999/xlink" xmlns:svgjs="http://svgjs.com/svgjs" width="1440" height="560" preserveAspectRatio="none" viewBox="0 0 1440 560"><g mask="url(&quot;#SvgjsMask1000&quot;)" fill="none"><rect width="1440" height="560" x="0" y="0" fill="#0e2a47"></rect><path d="M-84.75 343.09L-84.75 343.09" stroke="#132e65" stroke-width="1.5"></path><path d="M-84.75 343.09L-112.05 524.75" stroke="#132e65" stroke-width="1.5"></path><path d="M-84.75 343.09L108.35 493.21" stroke="#132e65" stroke-width="1.5"></path><path d="M-112.05 524.75L-112.05 524.75" stroke="#132e65" stroke-width="1.5"></path><path d="M-112.05 524.75L-53.58 671.91" stroke="#132e65" stroke-width="1.5"></path><path d="M-112.05 524.75L108.35 493.21" stroke="#132e65" stroke-width="1.5"></path><path d="M-112.05 524.75L110.25 641.65" stroke="#132e65" stroke-width="1.5"></path><path d="M-112.05 524.75L224.97 501.17" stroke="#132e65" stroke-width="1.5"></path><path d="M-112.05 524.75L212.46 358.65" stroke="#132e65" stroke-width="1.5"></path><path d="M-53.58 671.91L-53.58 671.91" stroke="#132e65" stroke-width="1.5"></path><path d="M-53.58 671.91L110.25 641.65" stroke="#132e65" stroke-width="1.5"></path><path d="M108.35 493.21L108.35 493.21" stroke="#132e65" stroke-width="1.5"></path><path d="M108.35 493.21L224.97 501.17" stroke="#132e65" stroke-width="1.5"></path><path d="M108.35 493.21L110.25 641.65" stroke="#132e65" stroke-width="1.5"></path><path d="M110.25 641.65L110.25 641.65" stroke="#132e65" stroke-width="1.5"></path><path d="M110.25 641.65L239.61 656.35" stroke="#132e65" stroke-width="1.5"></path><path d="M110.25 641.65L224.97 501.17" stroke="#132e65" stroke-width="1.5"></path><path d="M110.25 641.65L396.82 682.73" stroke="#132e65" stroke-width="1.5"></path><path d="M212.46 358.65L212.46 358.65" stroke="#132e65" stroke-width="1.5"></path><path d="M212.46 358.65L224.97 501.17" stroke="#132e65" stroke-width="1.5"></path><path d="M212.46 358.65L108.35 493.21" stroke="#132e65" stroke-width="1.5"></path><path d="M212.46 358.65L394.08 353.33" stroke="#132e65" stroke-width="1.5"></path><path d="M212.46 358.65L355.84 487.67" stroke="#132e65" stroke-width="1.5"></path><path d="M212.46 358.65L-84.75 343.09" stroke="#132e65" stroke-width="1.5"></path><path d="M224.97 501.17L224.97 501.17" stroke="#132e65" stroke-width="1.5"></path><path d="M239.61 656.35L239.61 656.35" stroke="#132e65" stroke-width="1.5"></path><path d="M239.61 656.35L224.97 501.17" stroke="#132e65" stroke-width="1.5"></path><path d="M239.61 656.35L396.82 682.73" stroke="#132e65" stroke-width="1.5"></path><path d="M239.61 656.35L355.84 487.67" stroke="#132e65" stroke-width="1.5"></path><path d="M394.08 353.33L394.08 353.33" stroke="#132e65" stroke-width="1.5"></path><path d="M394.08 353.33L355.84 487.67" stroke="#132e65" stroke-width="1.5"></path><path d="M355.84 487.67L355.84 487.67" stroke="#132e65" stroke-width="1.5"></path><path d="M355.84 487.67L224.97 501.17" stroke="#132e65" stroke-width="1.5"></path><path d="M355.84 487.67L545.56 503.67" stroke="#132e65" stroke-width="1.5"></path><path d="M396.82 682.73L396.82 682.73" stroke="#132e65" stroke-width="1.5"></path><path d="M396.82 682.73L355.84 487.67" stroke="#132e65" stroke-width="1.5"></path><path d="M396.82 682.73L545.56 503.67" stroke="#132e65" stroke-width="1.5"></path><path d="M396.82 682.73L224.97 501.17" stroke="#132e65" stroke-width="1.5"></path><path d="M545.56 503.67L545.56 503.67" stroke="#132e65" stroke-width="1.5"></path><path d="M545.56 503.67L701.2 488.34" stroke="#132e65" stroke-width="1.5"></path><path d="M704.14 367.38L704.14 367.38" stroke="#132e65" stroke-width="1.5"></path><path d="M704.14 367.38L701.2 488.34" stroke="#132e65" stroke-width="1.5"></path><path d="M704.14 367.38L842.67 411.11" stroke="#132e65" stroke-width="1.5"></path><path d="M704.14 367.38L803.75 247.63" stroke="#132e65" stroke-width="1.5"></path><path d="M704.14 367.38L837.13 513.38" stroke="#132e65" stroke-width="1.5"></path><path d="M704.14 367.38L545.56 503.67" stroke="#132e65" stroke-width="1.5"></path><path d="M701.2 488.34L701.2 488.34" stroke="#132e65" stroke-width="1.5"></path><path d="M701.2 488.34L837.13 513.38" stroke="#132e65" stroke-width="1.5"></path><path d="M664.89 708.91L664.89 708.91" stroke="#132e65" stroke-width="1.5"></path><path d="M664.89 708.91L828.67 659.13" stroke="#132e65" stroke-width="1.5"></path><path d="M664.89 708.91L701.2 488.34" stroke="#132e65" stroke-width="1.5"></path><path d="M664.89 708.91L545.56 503.67" stroke="#132e65" stroke-width="1.5"></path><path d="M803.75 247.63L803.75 247.63" stroke="#132e65" stroke-width="1.5"></path><path d="M803.75 247.63L842.67 411.11" stroke="#132e65" stroke-width="1.5"></path><path d="M803.75 247.63L1003.21 244.63" stroke="#132e65" stroke-width="1.5"></path><path d="M842.67 411.11L842.67 411.11" stroke="#132e65" stroke-width="1.5"></path><path d="M842.67 411.11L837.13 513.38" stroke="#132e65" stroke-width="1.5"></path><path d="M842.67 411.11L946.79 399.61" stroke="#132e65" stroke-width="1.5"></path><path d="M837.13 513.38L837.13 513.38" stroke="#132e65" stroke-width="1.5"></path><path d="M837.13 513.38L828.67 659.13" stroke="#132e65" stroke-width="1.5"></path><path d="M828.67 659.13L828.67 659.13" stroke="#132e65" stroke-width="1.5"></path><path d="M828.67 659.13L978.54 710.85" stroke="#132e65" stroke-width="1.5"></path><path d="M828.67 659.13L701.2 488.34" stroke="#132e65" stroke-width="1.5"></path><path d="M828.67 659.13L1005.96 538.12" stroke="#132e65" stroke-width="1.5"></path><path d="M996.38 -37.98L996.38 -37.98" stroke="#132e65" stroke-width="1.5"></path><path d="M996.38 -37.98L1005.79 45.34" stroke="#132e65" stroke-width="1.5"></path><path d="M996.38 -37.98L1095.09 -59.65" stroke="#132e65" stroke-width="1.5"></path><path d="M996.38 -37.98L1130.48 99.71" stroke="#132e65" stroke-width="1.5"></path><path d="M1005.79 45.34L1005.79 45.34" stroke="#132e65" stroke-width="1.5"></path><path d="M1005.79 45.34L1130.48 99.71" stroke="#132e65" stroke-width="1.5"></path><path d="M1005.79 45.34L1095.09 -59.65" stroke="#132e65" stroke-width="1.5"></path><path d="M1005.79 45.34L1003.21 244.63" stroke="#132e65" stroke-width="1.5"></path><path d="M1005.79 45.34L1143.25 257.14" stroke="#132e65" stroke-width="1.5"></path><path d="M1003.21 244.63L1003.21 244.63" stroke="#132e65" stroke-width="1.5"></path><path d="M1003.21 244.63L1143.25 257.14" stroke="#132e65" stroke-width="1.5"></path><path d="M1003.21 244.63L946.79 399.61" stroke="#132e65" stroke-width="1.5"></path><path d="M1003.21 244.63L1130.48 99.71" stroke="#132e65" stroke-width="1.5"></path><path d="M1003.21 244.63L1108.44 408.64" stroke="#132e65" stroke-width="1.5"></path><path d="M946.79 399.61L946.79 399.61" stroke="#132e65" stroke-width="1.5"></path><path d="M946.79 399.61L1005.96 538.12" stroke="#132e65" stroke-width="1.5"></path><path d="M1005.96 538.12L1005.96 538.12" stroke="#132e65" stroke-width="1.5"></path><path d="M1005.96 538.12L1122.51 557.05" stroke="#132e65" stroke-width="1.5"></path><path d="M1005.96 538.12L1108.44 408.64" stroke="#132e65" stroke-width="1.5"></path><path d="M1005.96 538.12L837.13 513.38" stroke="#132e65" stroke-width="1.5"></path><path d="M978.54 710.85L978.54 710.85" stroke="#132e65" stroke-width="1.5"></path><path d="M978.54 710.85L1005.96 538.12" stroke="#132e65" stroke-width="1.5"></path><path d="M978.54 710.85L1122.51 557.05" stroke="#132e65" stroke-width="1.5"></path><path d="M1095.09 -59.65L1095.09 -59.65" stroke="#132e65" stroke-width="1.5"></path><path d="M1095.09 -59.65L1130.48 99.71" stroke="#132e65" stroke-width="1.5"></path><path d="M1095.09 -59.65L1311.68 -102.11" stroke="#132e65" stroke-width="1.5"></path><path d="M1130.48 99.71L1130.48 99.71" stroke="#132e65" stroke-width="1.5"></path><path d="M1130.48 99.71L1280.05 92.1" stroke="#132e65" stroke-width="1.5"></path><path d="M1130.48 99.71L1143.25 257.14" stroke="#132e65" stroke-width="1.5"></path><path d="M1130.48 99.71L1254.53 216.72" stroke="#132e65" stroke-width="1.5"></path><path d="M1143.25 257.14L1143.25 257.14" stroke="#132e65" stroke-width="1.5"></path><path d="M1143.25 257.14L1254.53 216.72" stroke="#132e65" stroke-width="1.5"></path><path d="M1143.25 257.14L1245.35 350.37" stroke="#132e65" stroke-width="1.5"></path><path d="M1143.25 257.14L1108.44 408.64" stroke="#132e65" stroke-width="1.5"></path><path d="M1108.44 408.64L1108.44 408.64" stroke="#132e65" stroke-width="1.5"></path><path d="M1108.44 408.64L1245.35 350.37" stroke="#132e65" stroke-width="1.5"></path><path d="M1108.44 408.64L1122.51 557.05" stroke="#132e65" stroke-width="1.5"></path><path d="M1122.51 557.05L1122.51 557.05" stroke="#132e65" stroke-width="1.5"></path><path d="M1122.51 557.05L1265.06 546.59" stroke="#132e65" stroke-width="1.5"></path><path d="M1122.51 557.05L1291.81 658.03" stroke="#132e65" stroke-width="1.5"></path><path d="M1122.51 557.05L946.79 399.61" stroke="#132e65" stroke-width="1.5"></path><path d="M1311.68 -102.11L1311.68 -102.11" stroke="#132e65" stroke-width="1.5"></path><path d="M1311.68 -102.11L1448.06 -40.52" stroke="#132e65" stroke-width="1.5"></path><path d="M1311.68 -102.11L1280.05 92.1" stroke="#132e65" stroke-width="1.5"></path><path d="M1280.05 92.1L1280.05 92.1" stroke="#132e65" stroke-width="1.5"></path><path d="M1280.05 92.1L1254.53 216.72" stroke="#132e65" stroke-width="1.5"></path><path d="M1280.05 92.1L1454.94 64.33" stroke="#132e65" stroke-width="1.5"></path><path d="M1280.05 92.1L1448.06 -40.52" stroke="#132e65" stroke-width="1.5"></path><path d="M1280.05 92.1L1418.02 255.75" stroke="#132e65" stroke-width="1.5"></path><path d="M1254.53 216.72L1254.53 216.72" stroke="#132e65" stroke-width="1.5"></path><path d="M1245.35 350.37L1245.35 350.37" stroke="#132e65" stroke-width="1.5"></path><path d="M1245.35 350.37L1254.53 216.72" stroke="#132e65" stroke-width="1.5"></path><path d="M1245.35 350.37L1422.05 412.07" stroke="#132e65" stroke-width="1.5"></path><path d="M1265.06 546.59L1265.06 546.59" stroke="#132e65" stroke-width="1.5"></path><path d="M1265.06 546.59L1291.81 658.03" stroke="#132e65" stroke-width="1.5"></path><path d="M1265.06 546.59L1401.98 514.46" stroke="#132e65" stroke-width="1.5"></path><path d="M1265.06 546.59L1245.35 350.37" stroke="#132e65" stroke-width="1.5"></path><path d="M1265.06 546.59L1424.8 677.61" stroke="#132e65" stroke-width="1.5"></path><path d="M1265.06 546.59L1422.05 412.07" stroke="#132e65" stroke-width="1.5"></path><path d="M1291.81 658.03L1291.81 658.03" stroke="#132e65" stroke-width="1.5"></path><path d="M1291.81 658.03L1424.8 677.61" stroke="#132e65" stroke-width="1.5"></path><path d="M1291.81 658.03L1401.98 514.46" stroke="#132e65" stroke-width="1.5"></path><path d="M1291.81 658.03L1568.8 684.14" stroke="#132e65" stroke-width="1.5"></path><path d="M1448.06 -40.52L1448.06 -40.52" stroke="#132e65" stroke-width="1.5"></path><path d="M1448.06 -40.52L1454.94 64.33" stroke="#132e65" stroke-width="1.5"></path><path d="M1454.94 64.33L1454.94 64.33" stroke="#132e65" stroke-width="1.5"></path><path d="M1454.94 64.33L1604.14 109.76" stroke="#132e65" stroke-width="1.5"></path><path d="M1454.94 64.33L1418.02 255.75" stroke="#132e65" stroke-width="1.5"></path><path d="M1418.02 255.75L1418.02 255.75" stroke="#132e65" stroke-width="1.5"></path><path d="M1418.02 255.75L1422.05 412.07" stroke="#132e65" stroke-width="1.5"></path><path d="M1418.02 255.75L1254.53 216.72" stroke="#132e65" stroke-width="1.5"></path><path d="M1418.02 255.75L1591.38 208.4" stroke="#132e65" stroke-width="1.5"></path><path d="M1422.05 412.07L1422.05 412.07" stroke="#132e65" stroke-width="1.5"></path><path d="M1422.05 412.07L1401.98 514.46" stroke="#132e65" stroke-width="1.5"></path><path d="M1401.98 514.46L1401.98 514.46" stroke="#132e65" stroke-width="1.5"></path><path d="M1424.8 677.61L1424.8 677.61" stroke="#132e65" stroke-width="1.5"></path><path d="M1604.14 109.76L1604.14 109.76" stroke="#132e65" stroke-width="1.5"></path><path d="M1604.14 109.76L1591.38 208.4" stroke="#132e65" stroke-width="1.5"></path><path d="M1591.38 208.4L1591.38 208.4" stroke="#132e65" stroke-width="1.5"></path><path d="M1594.19 411.96L1594.19 411.96" stroke="#132e65" stroke-width="1.5"></path><path d="M1594.19 411.96L1599.42 491.1" stroke="#132e65" stroke-width="1.5"></path><path d="M1594.19 411.96L1422.05 412.07" stroke="#132e65" stroke-width="1.5"></path><path d="M1599.42 491.1L1599.42 491.1" stroke="#132e65" stroke-width="1.5"></path><path d="M1599.42 491.1L1422.05 412.07" stroke="#132e65" stroke-width="1.5"></path><path d="M1568.8 684.14L1568.8 684.14" stroke="#132e65" stroke-width="1.5"></path><path d="M1568.8 684.14L1424.8 677.61" stroke="#132e65" stroke-width="1.5"></path><path d="M1568.8 684.14L1599.42 491.1" stroke="#132e65" stroke-width="1.5"></path><path d="M1568.8 684.14L1401.98 514.46" stroke="#132e65" stroke-width="1.5"></path><path d="M1568.8 684.14L1594.19 411.96" stroke="#132e65" stroke-width="1.5"></path><path d="M1568.8 684.14L1422.05 412.07" stroke="#132e65" stroke-width="1.5"></path><circle r="5" cx="-84.75" cy="343.09" fill="#132e65"></circle><circle r="5" cx="-112.05" cy="524.75" fill="#132e65"></circle><circle r="5" cx="-53.58" cy="671.91" fill="#132e65"></circle><circle r="5" cx="108.35" cy="493.21" fill="#132e65"></circle><circle r="5" cx="110.25" cy="641.65" fill="#132e65"></circle><circle r="5" cx="212.46" cy="358.65" fill="#132e65"></circle><circle r="5" cx="224.97" cy="501.17" fill="#132e65"></circle><circle r="5" cx="239.61" cy="656.35" fill="#132e65"></circle><circle r="5" cx="394.08" cy="353.33" fill="#132e65"></circle><circle r="5" cx="355.84" cy="487.67" fill="#132e65"></circle><circle r="5" cx="396.82" cy="682.73" fill="#132e65"></circle><circle r="5" cx="545.56" cy="503.67" fill="#132e65"></circle><circle r="5" cx="704.14" cy="367.38" fill="#132e65"></circle><circle r="5" cx="701.2" cy="488.34" fill="#132e65"></circle><circle r="5" cx="664.89" cy="708.91" fill="#132e65"></circle><circle r="5" cx="803.75" cy="247.63" fill="#132e65"></circle><circle r="5" cx="842.67" cy="411.11" fill="#132e65"></circle><circle r="5" cx="837.13" cy="513.38" fill="#132e65"></circle><circle r="5" cx="828.67" cy="659.13" fill="#132e65"></circle><circle r="5" cx="996.38" cy="-37.98" fill="#132e65"></circle><circle r="5" cx="1005.79" cy="45.34" fill="#132e65"></circle><circle r="5" cx="1003.21" cy="244.63" fill="#132e65"></circle><circle r="5" cx="946.79" cy="399.61" fill="#132e65"></circle><circle r="5" cx="1005.96" cy="538.12" fill="#132e65"></circle><circle r="5" cx="978.54" cy="710.85" fill="#132e65"></circle><circle r="5" cx="1095.09" cy="-59.65" fill="#132e65"></circle><circle r="5" cx="1130.48" cy="99.71" fill="#132e65"></circle><circle r="5" cx="1143.25" cy="257.14" fill="#132e65"></circle><circle r="5" cx="1108.44" cy="408.64" fill="#132e65"></circle><circle r="5" cx="1122.51" cy="557.05" fill="#132e65"></circle><circle r="5" cx="1311.68" cy="-102.11" fill="#132e65"></circle><circle r="5" cx="1280.05" cy="92.1" fill="#132e65"></circle><circle r="5" cx="1254.53" cy="216.72" fill="#132e65"></circle><circle r="5" cx="1245.35" cy="350.37" fill="#132e65"></circle><circle r="5" cx="1265.06" cy="546.59" fill="#132e65"></circle><circle r="5" cx="1291.81" cy="658.03" fill="#132e65"></circle><circle r="5" cx="1448.06" cy="-40.52" fill="#132e65"></circle><circle r="5" cx="1454.94" cy="64.33" fill="#132e65"></circle><circle r="5" cx="1418.02" cy="255.75" fill="#132e65"></circle><circle r="5" cx="1422.05" cy="412.07" fill="#132e65"></circle><circle r="5" cx="1401.98" cy="514.46" fill="#132e65"></circle><circle r="5" cx="1424.8" cy="677.61" fill="#132e65"></circle><circle r="5" cx="1604.14" cy="109.76" fill="#132e65"></circle><circle r="5" cx="1591.38" cy="208.4" fill="#132e65"></circle><circle r="5" cx="1594.19" cy="411.96" fill="#132e65"></circle><circle r="5" cx="1599.42" cy="491.1" fill="#132e65"></circle><circle r="5" cx="1568.8" cy="684.14" fill="#132e65"></circle><path d="M-111.26 549.03L-111.26 549.03" stroke="hsl(228.5, 77.2%, 51.5%)" stroke-width="1.5"></path><path d="M-111.26 549.03L-101.32 662.22" stroke="hsl(228.5, 77.2%, 51.5%)" stroke-width="1.5"></path><path d="M-111.26 549.03L48.48 529.89" stroke="hsl(228.5, 77.2%, 51.5%)" stroke-width="1.5"></path><path d="M-111.26 549.03L81.39 682.85" stroke="hsl(228.5, 77.2%, 51.5%)" stroke-width="1.5"></path><path d="M48.48 529.89L48.48 529.89" stroke="hsl(228.5, 77.2%, 51.5%)" stroke-width="1.5"></path><path d="M48.48 529.89L81.39 682.85" stroke="hsl(228.5, 77.2%, 51.5%)" stroke-width="1.5"></path><path d="M48.48 529.89L211.51 520.51" stroke="hsl(228.5, 77.2%, 51.5%)" stroke-width="1.5"></path><path d="M648.27 502.25L648.27 502.25" stroke="hsl(228.5, 77.2%, 51.5%)" stroke-width="1.5"></path><path d="M648.27 502.25L676.83 377.73" stroke="hsl(228.5, 77.2%, 51.5%)" stroke-width="1.5"></path><path d="M648.27 502.25L520.25 513.46" stroke="hsl(228.5, 77.2%, 51.5%)" stroke-width="1.5"></path><path d="M648.27 502.25L812.58 542.49" stroke="hsl(228.5, 77.2%, 51.5%)" stroke-width="1.5"></path><path d="M648.27 502.25L697.14 675.44" stroke="hsl(228.5, 77.2%, 51.5%)" stroke-width="1.5"></path><path d="M648.27 502.25L821.43 397.09" stroke="hsl(228.5, 77.2%, 51.5%)" stroke-width="1.5"></path><path d="M648.27 502.25L517.53 673.08" stroke="hsl(228.5, 77.2%, 51.5%)" stroke-width="1.5"></path><path d="M821.43 397.09L821.43 397.09" stroke="hsl(228.5, 77.2%, 51.5%)" stroke-width="1.5"></path><path d="M821.43 397.09L812.58 542.49" stroke="hsl(228.5, 77.2%, 51.5%)" stroke-width="1.5"></path><path d="M821.43 397.09L676.83 377.73" stroke="hsl(228.5, 77.2%, 51.5%)" stroke-width="1.5"></path><path d="M821.43 397.09L941.78 528.11" stroke="hsl(228.5, 77.2%, 51.5%)" stroke-width="1.5"></path><path d="M821.43 397.09L1008.65 408.91" stroke="hsl(228.5, 77.2%, 51.5%)" stroke-width="1.5"></path><path d="M1261.09 207.14L1261.09 207.14" stroke="hsl(228.5, 77.2%, 51.5%)" stroke-width="1.5"></path><path d="M1261.09 207.14L1396.68 241.78" stroke="hsl(228.5, 77.2%, 51.5%)" stroke-width="1.5"></path><path d="M1261.09 207.14L1251.62 65.03" stroke="hsl(228.5, 77.2%, 51.5%)" stroke-width="1.5"></path><path d="M1261.09 207.14L1102.69 239.94" stroke="hsl(228.5, 77.2%, 51.5%)" stroke-width="1.5"></path><path d="M1261.09 207.14L1298.91 382.24" stroke="hsl(228.5, 77.2%, 51.5%)" stroke-width="1.5"></path><path d="M1261.09 207.14L1160.31 356.79" stroke="hsl(228.5, 77.2%, 51.5%)" stroke-width="1.5"></path><path d="M1261.09 207.14L1410.84 356.59" stroke="hsl(228.5, 77.2%, 51.5%)" stroke-width="1.5"></path><path d="M1297.8 499.99L1297.8 499.99" stroke="hsl(228.5, 77.2%, 51.5%)" stroke-width="1.5"></path><path d="M1297.8 499.99L1298.91 382.24" stroke="hsl(228.5, 77.2%, 51.5%)" stroke-width="1.5"></path><path d="M1297.8 499.99L1422.47 491.34" stroke="hsl(228.5, 77.2%, 51.5%)" stroke-width="1.5"></path><path d="M1607.15 106.55L1607.15 106.55" stroke="hsl(228.5, 77.2%, 51.5%)" stroke-width="1.5"></path><path d="M1607.15 106.55L1565.75 231.41" stroke="hsl(228.5, 77.2%, 51.5%)" stroke-width="1.5"></path><path d="M1607.15 106.55L1462.32 79.76" stroke="hsl(228.5, 77.2%, 51.5%)" stroke-width="1.5"></path><path d="M1606.88 640.1L1606.88 640.1" stroke="hsl(228.5, 77.2%, 51.5%)" stroke-width="1.5"></path><path d="M1606.88 640.1L1556.96 500.01" stroke="hsl(228.5, 77.2%, 51.5%)" stroke-width="1.5"></path><path d="M-101.32 662.22L-101.32 662.22" stroke="hsl(228.5, 77.2%, 51.5%)" stroke-width="1.5"></path><path d="M-101.32 662.22L81.39 682.85" stroke="hsl(228.5, 77.2%, 51.5%)" stroke-width="1.5"></path><path d="M-101.32 662.22L48.48 529.89" stroke="hsl(228.5, 77.2%, 51.5%)" stroke-width="1.5"></path><path d="M-101.32 662.22L211.51 520.51" stroke="hsl(228.5, 77.2%, 51.5%)" stroke-width="1.5"></path><path d="M-101.32 662.22L251.23 656.49" stroke="hsl(228.5, 77.2%, 51.5%)" stroke-width="1.5"></path><path d="M-101.32 662.22L359.12 700.09" stroke="hsl(228.5, 77.2%, 51.5%)" stroke-width="1.5"></path><path d="M81.39 682.85L81.39 682.85" stroke="hsl(228.5, 77.2%, 51.5%)" stroke-width="1.5"></path><path d="M81.39 682.85L251.23 656.49" stroke="hsl(228.5, 77.2%, 51.5%)" stroke-width="1.5"></path><path d="M81.39 682.85L211.51 520.51" stroke="hsl(228.5, 77.2%, 51.5%)" stroke-width="1.5"></path><path d="M81.39 682.85L359.12 700.09" stroke="hsl(228.5, 77.2%, 51.5%)" stroke-width="1.5"></path><path d="M211.51 520.51L211.51 520.51" stroke="hsl(228.5, 77.2%, 51.5%)" stroke-width="1.5"></path><path d="M211.51 520.51L346.25 529.01" stroke="hsl(228.5, 77.2%, 51.5%)" stroke-width="1.5"></path><path d="M211.51 520.51L251.23 656.49" stroke="hsl(228.5, 77.2%, 51.5%)" stroke-width="1.5"></path><path d="M211.51 520.51L359.12 700.09" stroke="hsl(228.5, 77.2%, 51.5%)" stroke-width="1.5"></path><path d="M251.23 656.49L251.23 656.49" stroke="hsl(228.5, 77.2%, 51.5%)" stroke-width="1.5"></path><path d="M251.23 656.49L359.12 700.09" stroke="hsl(228.5, 77.2%, 51.5%)" stroke-width="1.5"></path><path d="M251.23 656.49L346.25 529.01" stroke="hsl(228.5, 77.2%, 51.5%)" stroke-width="1.5"></path><path d="M346.25 529.01L346.25 529.01" stroke="hsl(228.5, 77.2%, 51.5%)" stroke-width="1.5"></path><path d="M346.25 529.01L359.12 700.09" stroke="hsl(228.5, 77.2%, 51.5%)" stroke-width="1.5"></path><path d="M346.25 529.01L520.25 513.46" stroke="hsl(228.5, 77.2%, 51.5%)" stroke-width="1.5"></path><path d="M346.25 529.01L517.53 673.08" stroke="hsl(228.5, 77.2%, 51.5%)" stroke-width="1.5"></path><path d="M359.12 700.09L359.12 700.09" stroke="hsl(228.5, 77.2%, 51.5%)" stroke-width="1.5"></path><path d="M520.25 513.46L520.25 513.46" stroke="hsl(228.5, 77.2%, 51.5%)" stroke-width="1.5"></path><path d="M520.25 513.46L517.53 673.08" stroke="hsl(228.5, 77.2%, 51.5%)" stroke-width="1.5"></path><path d="M517.53 673.08L517.53 673.08" stroke="hsl(228.5, 77.2%, 51.5%)" stroke-width="1.5"></path><path d="M517.53 673.08L359.12 700.09" stroke="hsl(228.5, 77.2%, 51.5%)" stroke-width="1.5"></path><path d="M517.53 673.08L697.14 675.44" stroke="hsl(228.5, 77.2%, 51.5%)" stroke-width="1.5"></path><path d="M676.83 377.73L676.83 377.73" stroke="hsl(228.5, 77.2%, 51.5%)" stroke-width="1.5"></path><path d="M697.14 675.44L697.14 675.44" stroke="hsl(228.5, 77.2%, 51.5%)" stroke-width="1.5"></path><path d="M697.14 675.44L812.58 542.49" stroke="hsl(228.5, 77.2%, 51.5%)" stroke-width="1.5"></path><path d="M812.58 542.49L812.58 542.49" stroke="hsl(228.5, 77.2%, 51.5%)" stroke-width="1.5"></path><path d="M812.58 542.49L941.78 528.11" stroke="hsl(228.5, 77.2%, 51.5%)" stroke-width="1.5"></path><path d="M1008.65 408.91L1008.65 408.91" stroke="hsl(228.5, 77.2%, 51.5%)" stroke-width="1.5"></path><path d="M1008.65 408.91L1091.45 511.44" stroke="hsl(228.5, 77.2%, 51.5%)" stroke-width="1.5"></path><path d="M1008.65 408.91L941.78 528.11" stroke="hsl(228.5, 77.2%, 51.5%)" stroke-width="1.5"></path><path d="M1008.65 408.91L1160.31 356.79" stroke="hsl(228.5, 77.2%, 51.5%)" stroke-width="1.5"></path><path d="M941.78 528.11L941.78 528.11" stroke="hsl(228.5, 77.2%, 51.5%)" stroke-width="1.5"></path><path d="M949.75 677.57L949.75 677.57" stroke="hsl(228.5, 77.2%, 51.5%)" stroke-width="1.5"></path><path d="M949.75 677.57L941.78 528.11" stroke="hsl(228.5, 77.2%, 51.5%)" stroke-width="1.5"></path><path d="M949.75 677.57L1139.96 669.54" stroke="hsl(228.5, 77.2%, 51.5%)" stroke-width="1.5"></path><path d="M1102.69 239.94L1102.69 239.94" stroke="hsl(228.5, 77.2%, 51.5%)" stroke-width="1.5"></path><path d="M1102.69 239.94L1160.31 356.79" stroke="hsl(228.5, 77.2%, 51.5%)" stroke-width="1.5"></path><path d="M1102.69 239.94L1008.65 408.91" stroke="hsl(228.5, 77.2%, 51.5%)" stroke-width="1.5"></path><path d="M1102.69 239.94L1251.62 65.03" stroke="hsl(228.5, 77.2%, 51.5%)" stroke-width="1.5"></path><path d="M1102.69 239.94L1298.91 382.24" stroke="hsl(228.5, 77.2%, 51.5%)" stroke-width="1.5"></path><path d="M1102.69 239.94L1091.45 511.44" stroke="hsl(228.5, 77.2%, 51.5%)" stroke-width="1.5"></path><path d="M1160.31 356.79L1160.31 356.79" stroke="hsl(228.5, 77.2%, 51.5%)" stroke-width="1.5"></path><path d="M1160.31 356.79L1298.91 382.24" stroke="hsl(228.5, 77.2%, 51.5%)" stroke-width="1.5"></path><path d="M1160.31 356.79L1091.45 511.44" stroke="hsl(228.5, 77.2%, 51.5%)" stroke-width="1.5"></path><path d="M1091.45 511.44L1091.45 511.44" stroke="hsl(228.5, 77.2%, 51.5%)" stroke-width="1.5"></path><path d="M1091.45 511.44L941.78 528.11" stroke="hsl(228.5, 77.2%, 51.5%)" stroke-width="1.5"></path><path d="M1091.45 511.44L1139.96 669.54" stroke="hsl(228.5, 77.2%, 51.5%)" stroke-width="1.5"></path><path d="M1139.96 669.54L1139.96 669.54" stroke="hsl(228.5, 77.2%, 51.5%)" stroke-width="1.5"></path><path d="M1139.96 669.54L1282.1 672.74" stroke="hsl(228.5, 77.2%, 51.5%)" stroke-width="1.5"></path><path d="M1139.96 669.54L1297.8 499.99" stroke="hsl(228.5, 77.2%, 51.5%)" stroke-width="1.5"></path><path d="M1246.6 -67.18L1246.6 -67.18" stroke="hsl(228.5, 77.2%, 51.5%)" stroke-width="1.5"></path><path d="M1246.6 -67.18L1251.62 65.03" stroke="hsl(228.5, 77.2%, 51.5%)" stroke-width="1.5"></path><path d="M1246.6 -67.18L1422.61 -88.85" stroke="hsl(228.5, 77.2%, 51.5%)" stroke-width="1.5"></path><path d="M1246.6 -67.18L1462.32 79.76" stroke="hsl(228.5, 77.2%, 51.5%)" stroke-width="1.5"></path><path d="M1246.6 -67.18L1261.09 207.14" stroke="hsl(228.5, 77.2%, 51.5%)" stroke-width="1.5"></path><path d="M1246.6 -67.18L1102.69 239.94" stroke="hsl(228.5, 77.2%, 51.5%)" stroke-width="1.5"></path><path d="M1246.6 -67.18L1396.68 241.78" stroke="hsl(228.5, 77.2%, 51.5%)" stroke-width="1.5"></path><path d="M1251.62 65.03L1251.62 65.03" stroke="hsl(228.5, 77.2%, 51.5%)" stroke-width="1.5"></path><path d="M1251.62 65.03L1462.32 79.76" stroke="hsl(228.5, 77.2%, 51.5%)" stroke-width="1.5"></path><path d="M1251.62 65.03L1396.68 241.78" stroke="hsl(228.5, 77.2%, 51.5%)" stroke-width="1.5"></path><path d="M1298.91 382.24L1298.91 382.24" stroke="hsl(228.5, 77.2%, 51.5%)" stroke-width="1.5"></path><path d="M1298.91 382.24L1410.84 356.59" stroke="hsl(228.5, 77.2%, 51.5%)" stroke-width="1.5"></path><path d="M1282.1 672.74L1282.1 672.74" stroke="hsl(228.5, 77.2%, 51.5%)" stroke-width="1.5"></path><path d="M1282.1 672.74L1424.04 646.23" stroke="hsl(228.5, 77.2%, 51.5%)" stroke-width="1.5"></path><path d="M1422.61 -88.85L1422.61 -88.85" stroke="hsl(228.5, 77.2%, 51.5%)" stroke-width="1.5"></path><path d="M1422.61 -88.85L1462.32 79.76" stroke="hsl(228.5, 77.2%, 51.5%)" stroke-width="1.5"></path><path d="M1422.61 -88.85L1594.62 -110.91" stroke="hsl(228.5, 77.2%, 51.5%)" stroke-width="1.5"></path><path d="M1422.61 -88.85L1251.62 65.03" stroke="hsl(228.5, 77.2%, 51.5%)" stroke-width="1.5"></path><path d="M1422.61 -88.85L1607.15 106.55" stroke="hsl(228.5, 77.2%, 51.5%)" stroke-width="1.5"></path><path d="M1422.61 -88.85L1396.68 241.78" stroke="hsl(228.5, 77.2%, 51.5%)" stroke-width="1.5"></path><path d="M1462.32 79.76L1462.32 79.76" stroke="hsl(228.5, 77.2%, 51.5%)" stroke-width="1.5"></path><path d="M1462.32 79.76L1396.68 241.78" stroke="hsl(228.5, 77.2%, 51.5%)" stroke-width="1.5"></path><path d="M1462.32 79.76L1565.75 231.41" stroke="hsl(228.5, 77.2%, 51.5%)" stroke-width="1.5"></path><path d="M1462.32 79.76L1594.62 -110.91" stroke="hsl(228.5, 77.2%, 51.5%)" stroke-width="1.5"></path><path d="M1396.68 241.78L1396.68 241.78" stroke="hsl(228.5, 77.2%, 51.5%)" stroke-width="1.5"></path><path d="M1396.68 241.78L1410.84 356.59" stroke="hsl(228.5, 77.2%, 51.5%)" stroke-width="1.5"></path><path d="M1396.68 241.78L1565.75 231.41" stroke="hsl(228.5, 77.2%, 51.5%)" stroke-width="1.5"></path><path d="M1396.68 241.78L1298.91 382.24" stroke="hsl(228.5, 77.2%, 51.5%)" stroke-width="1.5"></path><path d="M1410.84 356.59L1410.84 356.59" stroke="hsl(228.5, 77.2%, 51.5%)" stroke-width="1.5"></path><path d="M1410.84 356.59L1422.47 491.34" stroke="hsl(228.5, 77.2%, 51.5%)" stroke-width="1.5"></path><path d="M1410.84 356.59L1297.8 499.99" stroke="hsl(228.5, 77.2%, 51.5%)" stroke-width="1.5"></path><path d="M1410.84 356.59L1565.75 231.41" stroke="hsl(228.5, 77.2%, 51.5%)" stroke-width="1.5"></path><path d="M1410.84 356.59L1556.96 500.01" stroke="hsl(228.5, 77.2%, 51.5%)" stroke-width="1.5"></path><path d="M1422.47 491.34L1422.47 491.34" stroke="hsl(228.5, 77.2%, 51.5%)" stroke-width="1.5"></path><path d="M1422.47 491.34L1556.96 500.01" stroke="hsl(228.5, 77.2%, 51.5%)" stroke-width="1.5"></path><path d="M1424.04 646.23L1424.04 646.23" stroke="hsl(228.5, 77.2%, 51.5%)" stroke-width="1.5"></path><path d="M1424.04 646.23L1422.47 491.34" stroke="hsl(228.5, 77.2%, 51.5%)" stroke-width="1.5"></path><path d="M1594.62 -110.91L1594.62 -110.91" stroke="hsl(228.5, 77.2%, 51.5%)" stroke-width="1.5"></path><path d="M1594.62 -110.91L1607.15 106.55" stroke="hsl(228.5, 77.2%, 51.5%)" stroke-width="1.5"></path><path d="M1565.75 231.41L1565.75 231.41" stroke="hsl(228.5, 77.2%, 51.5%)" stroke-width="1.5"></path><path d="M1556.96 500.01L1556.96 500.01" stroke="hsl(228.5, 77.2%, 51.5%)" stroke-width="1.5"></path><path d="M1556.96 500.01L1424.04 646.23" stroke="hsl(228.5, 77.2%, 51.5%)" stroke-width="1.5"></path><path d="M1556.96 500.01L1297.8 499.99" stroke="hsl(228.5, 77.2%, 51.5%)" stroke-width="1.5"></path><path d="M1556.96 500.01L1565.75 231.41" stroke="hsl(228.5, 77.2%, 51.5%)" stroke-width="1.5"></path><circle r="25" cx="-111.26" cy="549.03" fill="url(#SvgjsRadialGradient1001)"></circle><circle r="25" cx="48.48" cy="529.89" fill="url(#SvgjsRadialGradient1001)"></circle><circle r="25" cx="648.27" cy="502.25" fill="url(#SvgjsRadialGradient1001)"></circle><circle r="25" cx="821.43" cy="397.09" fill="url(#SvgjsRadialGradient1001)"></circle><circle r="25" cx="1261.09" cy="207.14" fill="url(#SvgjsRadialGradient1001)"></circle><circle r="25" cx="1297.8" cy="499.99" fill="url(#SvgjsRadialGradient1001)"></circle><circle r="25" cx="1607.15" cy="106.55" fill="url(#SvgjsRadialGradient1001)"></circle><circle r="25" cx="1606.88" cy="640.1" fill="url(#SvgjsRadialGradient1001)"></circle><circle r="5" cx="-101.32" cy="662.22" fill="#8b9ad9"></circle><circle r="5" cx="81.39" cy="682.85" fill="#8b9ad9"></circle><circle r="5" cx="211.51" cy="520.51" fill="#8b9ad9"></circle><circle r="5" cx="251.23" cy="656.49" fill="#8b9ad9"></circle><circle r="5" cx="346.25" cy="529.01" fill="#8b9ad9"></circle><circle r="5" cx="359.12" cy="700.09" fill="#8b9ad9"></circle><circle r="5" cx="520.25" cy="513.46" fill="#8b9ad9"></circle><circle r="5" cx="517.53" cy="673.08" fill="#8b9ad9"></circle><circle r="5" cx="676.83" cy="377.73" fill="#8b9ad9"></circle><circle r="5" cx="697.14" cy="675.44" fill="#8b9ad9"></circle><circle r="5" cx="812.58" cy="542.49" fill="#8b9ad9"></circle><circle r="5" cx="1008.65" cy="408.91" fill="#8b9ad9"></circle><circle r="5" cx="941.78" cy="528.11" fill="#8b9ad9"></circle><circle r="5" cx="949.75" cy="677.57" fill="#8b9ad9"></circle><circle r="5" cx="1102.69" cy="239.94" fill="#8b9ad9"></circle><circle r="5" cx="1160.31" cy="356.79" fill="#8b9ad9"></circle><circle r="5" cx="1091.45" cy="511.44" fill="#8b9ad9"></circle><circle r="5" cx="1139.96" cy="669.54" fill="#8b9ad9"></circle><circle r="5" cx="1246.6" cy="-67.18" fill="#8b9ad9"></circle><circle r="5" cx="1251.62" cy="65.03" fill="#8b9ad9"></circle><circle r="5" cx="1298.91" cy="382.24" fill="#8b9ad9"></circle><circle r="5" cx="1282.1" cy="672.74" fill="#8b9ad9"></circle><circle r="5" cx="1422.61" cy="-88.85" fill="#8b9ad9"></circle><circle r="5" cx="1462.32" cy="79.76" fill="#8b9ad9"></circle><circle r="5" cx="1396.68" cy="241.78" fill="#8b9ad9"></circle><circle r="5" cx="1410.84" cy="356.59" fill="#8b9ad9"></circle><circle r="5" cx="1422.47" cy="491.34" fill="#8b9ad9"></circle><circle r="5" cx="1424.04" cy="646.23" fill="#8b9ad9"></circle><circle r="5" cx="1594.62" cy="-110.91" fill="#8b9ad9"></circle><circle r="5" cx="1565.75" cy="231.41" fill="#8b9ad9"></circle><circle r="5" cx="1556.96" cy="500.01" fill="#8b9ad9"></circle></g><defs><mask id="SvgjsMask1000"><rect width="1440" height="560" fill="#ffffff"></rect></mask><radialGradient id="SvgjsRadialGradient1001"><stop stop-color="#ffffff" offset="0.1"></stop><stop stop-color="#1735b3" offset="0.2"></stop><stop stop-color="rgba(23, 53, 179, 0)" offset="1"></stop></radialGradient></defs></svg>